<?xml version="1.0" encoding="utf-8"?>
<!-- Generator: Adobe Illustrator 16.0.0, SVG Export Plug-In . SVG Version: 6.00 Build 0)  -->
<!DOCTYPE svg PUBLIC "-//W3C//DTD SVG 1.0//EN" "http://www.w3.org/TR/2001/REC-SVG-20010904/DTD/svg10.dtd">
<svg version="1.0" id="Map" xmlns="http://www.w3.org/2000/svg" xmlns:xlink="http://www.w3.org/1999/xlink" x="0px" y="0px"
	 width="1334px" height="750px" viewBox="0 0 1334 750" enable-background="new 0 0 1334 750" xml:space="preserve">
<g id="MapBG">
	<rect stroke="#FFFFFF" stroke-miterlimit="10" width="1334" height="750"/>
	<g>
		<defs>
			<rect id="SVGID_1_" width="1334" height="749.996"/>
		</defs>
		<clipPath id="SVGID_2_">
			<use xlink:href="#SVGID_1_"  overflow="visible"/>
		</clipPath>
		<g clip-path="url(#SVGID_2_)">
			<defs>
				<rect id="SVGID_3_" width="1334" height="749.996"/>
			</defs>
			<clipPath id="SVGID_4_">
				<use xlink:href="#SVGID_3_"  overflow="visible"/>
			</clipPath>
			<g opacity="0.45" clip-path="url(#SVGID_4_)">
				<g>
					<defs>
						<rect id="SVGID_5_" x="326.8" y="281.194" width="158.541" height="190.646"/>
					</defs>
					<clipPath id="SVGID_6_">
						<use xlink:href="#SVGID_5_"  overflow="visible"/>
					</clipPath>
					<polygon clip-path="url(#SVGID_6_)" fill="#FFFFFF" points="418.477,400.218 431.062,400.218 431.062,470.283 435.291,470.283 
						439.52,470.283 442.632,470.283 442.632,410.337 485.342,410.337 485.342,299.088 443.899,299.088 439.812,299.088 
						439.52,299.088 439.52,281.194 431.062,281.194 431.062,354.712 352.787,354.712 326.8,354.696 326.8,381.543 352.787,381.543 
						352.787,400.218 366.08,400.218 366.08,471.842 418.477,471.842 					"/>
				</g>
			</g>
			<g opacity="0.45" clip-path="url(#SVGID_4_)">
				<g>
					<defs>
						<rect id="SVGID_7_" x="877.964" y="321.836" width="91.425" height="125.011"/>
					</defs>
					<clipPath id="SVGID_8_">
						<use xlink:href="#SVGID_7_"  overflow="visible"/>
					</clipPath>
					<polygon clip-path="url(#SVGID_8_)" fill="#FFFFFF" points="890.862,446.76 943.056,446.76 943.056,430.395 969.39,430.395 
						969.39,389.155 943.056,389.155 943.056,321.836 889.759,321.836 889.759,421.357 877.965,421.357 877.965,446.847 
						890.862,446.847 					"/>
				</g>
			</g>
			<g opacity="0.45" clip-path="url(#SVGID_4_)">
				<g>
					<defs>
						<rect id="SVGID_9_" x="734.454" y="316.255" width="134.22" height="205.858"/>
					</defs>
					<clipPath id="SVGID_10_">
						<use xlink:href="#SVGID_9_"  overflow="visible"/>
					</clipPath>
					<polygon clip-path="url(#SVGID_10_)" fill="#FFFFFF" points="809.267,522.113 847.221,522.113 847.221,446.422 
						868.675,446.422 868.675,421.195 770.197,421.195 770.197,316.255 745.122,316.255 745.122,421.195 745.122,425.282 
						745.122,446.23 744.896,446.23 744.896,470.926 734.453,470.926 734.453,497.443 782.523,497.443 782.523,470.926 
						770.522,470.926 770.522,446.422 809.267,446.422 					"/>
				</g>
			</g>
		</g>
		
			<line clip-path="url(#SVGID_2_)" fill="none" stroke="#FFFFFF" stroke-miterlimit="10" x1="439.52" y1="299.147" x2="485.341" y2="299.147"/>
		
			<line clip-path="url(#SVGID_2_)" fill="none" stroke="#FFFFFF" stroke-miterlimit="10" x1="484.922" y1="299.147" x2="484.915" y2="446.74"/>
		
			<line clip-path="url(#SVGID_2_)" fill="none" stroke="#FFFFFF" stroke-width="0.38" stroke-miterlimit="10" x1="485.113" y1="400.277" x2="442.632" y2="400.277"/>
		
			<line clip-path="url(#SVGID_2_)" fill="none" stroke="#FFFFFF" stroke-miterlimit="10" x1="471.048" y1="410.396" x2="442.831" y2="410.396"/>
		
			<line clip-path="url(#SVGID_2_)" fill="none" stroke="#FFFFFF" stroke-miterlimit="10" x1="442.831" y1="409.95" x2="442.831" y2="470.344"/>
		
			<line clip-path="url(#SVGID_2_)" fill="none" stroke="#FFFFFF" stroke-width="0.38" stroke-miterlimit="10" x1="442.831" y1="446.739" x2="438.654" y2="446.739"/>
		
			<line clip-path="url(#SVGID_2_)" fill="none" stroke="#FFFFFF" stroke-miterlimit="10" x1="443.333" y1="470.344" x2="430.624" y2="470.344"/>
		
			<line clip-path="url(#SVGID_2_)" fill="none" stroke="#FFFFFF" stroke-miterlimit="10" x1="431.062" y1="400.58" x2="431.062" y2="470.344"/>
		
			<line clip-path="url(#SVGID_2_)" fill="none" stroke="#FFFFFF" stroke-miterlimit="10" x1="431.458" y1="400.58" x2="400.893" y2="400.58"/>
		
			<line clip-path="url(#SVGID_2_)" fill="none" stroke="#FFFFFF" stroke-miterlimit="10" x1="418.477" y1="400.856" x2="418.477" y2="471.9"/>
		
			<line clip-path="url(#SVGID_2_)" fill="none" stroke="#FFFFFF" stroke-miterlimit="10" x1="418.955" y1="471.9" x2="366.08" y2="471.9"/>
		
			<line clip-path="url(#SVGID_2_)" fill="none" stroke="#FFFFFF" stroke-miterlimit="10" x1="366.08" y1="400.856" x2="366.08" y2="471.9"/>
		
			<line clip-path="url(#SVGID_2_)" fill="none" stroke="#FFFFFF" stroke-miterlimit="10" x1="366.567" y1="400.856" x2="352.787" y2="400.856"/>
		
			<line clip-path="url(#SVGID_2_)" fill="none" stroke="#FFFFFF" stroke-miterlimit="10" x1="352.996" y1="401.389" x2="352.996" y2="381.124"/>
		
			<line clip-path="url(#SVGID_2_)" fill="none" stroke="#FFFFFF" stroke-miterlimit="10" x1="353.4" y1="381.123" x2="326.366" y2="381.123"/>
		
			<line clip-path="url(#SVGID_2_)" fill="none" stroke="#FFFFFF" stroke-miterlimit="10" x1="326.366" y1="381.602" x2="326.366" y2="359.115"/>
		
			<line clip-path="url(#SVGID_2_)" fill="none" stroke="#FFFFFF" stroke-width="0.38" stroke-miterlimit="10" x1="439.812" y1="354.039" x2="484.914" y2="354.039"/>
		
			<line clip-path="url(#SVGID_2_)" fill="none" stroke="#FFFFFF" stroke-miterlimit="10" x1="439.817" y1="281.253" x2="439.817" y2="335.901"/>
		
			<line clip-path="url(#SVGID_2_)" fill="none" stroke="#FFFFFF" stroke-miterlimit="10" x1="431.011" y1="281.25" x2="431.011" y2="354.712"/>
		
			<line clip-path="url(#SVGID_2_)" fill="none" stroke="#FFFFFF" stroke-miterlimit="10" x1="417.432" y1="342.409" x2="430.779" y2="342.409"/>
		
			<line clip-path="url(#SVGID_2_)" fill="none" stroke="#FFFFFF" stroke-miterlimit="10" x1="417.432" y1="325.226" x2="417.432" y2="342.962"/>
		
			<line clip-path="url(#SVGID_2_)" fill="none" stroke="#FFFFFF" stroke-miterlimit="10" x1="363.468" y1="325.673" x2="417.444" y2="325.673"/>
		
			<line clip-path="url(#SVGID_2_)" fill="none" stroke="#FFFFFF" stroke-miterlimit="10" x1="363.467" y1="354.264" x2="417.444" y2="354.264"/>
		
			<line clip-path="url(#SVGID_2_)" fill="none" stroke="#FFFFFF" stroke-miterlimit="10" x1="390.143" y1="325.672" x2="390.143" y2="354.264"/>
		
			<line clip-path="url(#SVGID_2_)" fill="none" stroke="#FFFFFF" stroke-miterlimit="10" x1="383.9" y1="400.856" x2="366.567" y2="400.856"/>
		
			<line clip-path="url(#SVGID_2_)" fill="none" stroke="#FFFFFF" stroke-miterlimit="10" x1="352.996" y1="351.094" x2="352.996" y2="367.425"/>
		
			<line clip-path="url(#SVGID_2_)" fill="none" stroke="#FFFFFF" stroke-miterlimit="10" x1="323.86" y1="354.263" x2="352.786" y2="354.263"/>
		
			<line clip-path="url(#SVGID_2_)" fill="none" stroke="#FFFFFF" stroke-miterlimit="10" x1="324.269" y1="280.955" x2="324.269" y2="354.264"/>
		
			<line clip-path="url(#SVGID_2_)" fill="none" stroke="#FFFFFF" stroke-miterlimit="10" x1="353.408" y1="280.955" x2="323.805" y2="280.955"/>
		
			<line clip-path="url(#SVGID_2_)" fill="none" stroke="#FFFFFF" stroke-miterlimit="10" x1="352.996" y1="234.343" x2="352.996" y2="280.954"/>
		
			<line clip-path="url(#SVGID_2_)" fill="none" stroke="#FFFFFF" stroke-miterlimit="10" x1="312.114" y1="359.316" x2="326.8" y2="359.316"/>
		
			<line clip-path="url(#SVGID_2_)" fill="none" stroke="#FFFFFF" stroke-miterlimit="10" x1="440.305" y1="281.475" x2="430.508" y2="281.475"/>
		
			<line clip-path="url(#SVGID_2_)" fill="none" stroke="#FFFFFF" stroke-miterlimit="10" x1="442.831" y1="446.739" x2="485.384" y2="446.739"/>
		
			<line clip-path="url(#SVGID_2_)" fill="none" stroke="#FFFFFF" stroke-miterlimit="10" x1="964.844" y1="311.912" x2="964.844" y2="347.395"/>
		
			<line clip-path="url(#SVGID_2_)" fill="none" stroke="#FFFFFF" stroke-miterlimit="10" x1="965.319" y1="347.395" x2="943.484" y2="347.395"/>
		
			<line clip-path="url(#SVGID_2_)" fill="none" stroke="#FFFFFF" stroke-miterlimit="10" x1="943.483" y1="346.878" x2="943.483" y2="389.155"/>
		
			<line clip-path="url(#SVGID_2_)" fill="none" stroke="#FFFFFF" stroke-miterlimit="10" x1="969.39" y1="389.158" x2="943.055" y2="389.158"/>
		
			<line clip-path="url(#SVGID_2_)" fill="none" stroke="#FFFFFF" stroke-miterlimit="10" x1="969.389" y1="388.739" x2="969.389" y2="430.395"/>
		
			<line clip-path="url(#SVGID_2_)" fill="none" stroke="#FFFFFF" stroke-miterlimit="10" x1="969.93" y1="430.394" x2="942.309" y2="430.394"/>
		
			<line clip-path="url(#SVGID_2_)" fill="none" stroke="#FFFFFF" stroke-miterlimit="10" x1="942.855" y1="430.394" x2="942.855" y2="446.761"/>
		
			<line clip-path="url(#SVGID_2_)" fill="none" stroke="#FFFFFF" stroke-miterlimit="10" x1="877.965" y1="421.357" x2="877.965" y2="446.847"/>
		
			<line clip-path="url(#SVGID_2_)" fill="none" stroke="#FFFFFF" stroke-width="1.039" stroke-miterlimit="10" x1="877.517" y1="421.357" x2="889.758" y2="421.357"/>
		
			<line clip-path="url(#SVGID_2_)" fill="none" stroke="#FFFFFF" stroke-width="1.015" stroke-miterlimit="10" x1="889.31" y1="347.43" x2="889.31" y2="321.444"/>
		
			<line clip-path="url(#SVGID_2_)" fill="none" stroke="#FFFFFF" stroke-miterlimit="10" x1="889.311" y1="379.945" x2="889.311" y2="396.906"/>
		
			<line clip-path="url(#SVGID_2_)" fill="none" stroke="#FFFFFF" stroke-miterlimit="10" x1="889.311" y1="404.597" x2="889.311" y2="421.356"/>
		
			<line clip-path="url(#SVGID_2_)" fill="none" stroke="#FFFFFF" stroke-miterlimit="10" x1="889.305" y1="330.87" x2="783.717" y2="330.87"/>
		
			<line clip-path="url(#SVGID_2_)" fill="none" stroke="#FFFFFF" stroke-width="1.004" stroke-miterlimit="10" x1="783.717" y1="412.274" x2="783.717" y2="330.566"/>
		
			<line clip-path="url(#SVGID_2_)" fill="none" stroke="#FFFFFF" stroke-miterlimit="10" x1="889.305" y1="411.97" x2="783.717" y2="411.97"/>
		
			<line clip-path="url(#SVGID_2_)" fill="none" stroke="#FFFFFF" stroke-miterlimit="10" x1="868.675" y1="421.195" x2="868.675" y2="446.847"/>
		
			<line clip-path="url(#SVGID_2_)" fill="none" stroke="#FFFFFF" stroke-miterlimit="10" x1="770.198" y1="421.357" x2="869.172" y2="421.357"/>
		
			<line clip-path="url(#SVGID_2_)" fill="none" stroke="#FFFFFF" stroke-width="1.005" stroke-miterlimit="10" x1="770.198" y1="421.854" x2="770.198" y2="316.255"/>
		
			<line clip-path="url(#SVGID_2_)" fill="none" stroke="#FFFFFF" stroke-width="1.007" stroke-miterlimit="10" x1="745.037" y1="409.641" x2="745.037" y2="316.255"/>
		
			<line clip-path="url(#SVGID_2_)" fill="none" stroke="#FFFFFF" stroke-miterlimit="10" x1="733.591" y1="408.761" x2="733.591" y2="415.053"/>
		
			<line clip-path="url(#SVGID_2_)" fill="none" stroke="#FFFFFF" stroke-miterlimit="10" x1="745.037" y1="409.197" x2="733.592" y2="409.197"/>
		
			<line clip-path="url(#SVGID_2_)" fill="none" stroke="#FFFFFF" stroke-miterlimit="10" x1="770.198" y1="316.752" x2="745.037" y2="316.752"/>
		
			<line clip-path="url(#SVGID_2_)" fill="none" stroke="#FFFFFF" stroke-miterlimit="10" x1="953.243" y1="321.736" x2="953.243" y2="347.395"/>
		
			<line clip-path="url(#SVGID_2_)" fill="none" stroke="#FFFFFF" stroke-width="1.043" stroke-miterlimit="10" x1="943.055" y1="321.737" x2="953.673" y2="321.737"/>
		
			<line clip-path="url(#SVGID_2_)" fill="none" stroke="#FFFFFF" stroke-miterlimit="10" x1="943.483" y1="347.395" x2="943.483" y2="321.737"/>
		
			<line clip-path="url(#SVGID_2_)" fill="none" stroke="#FFFFFF" stroke-miterlimit="10" x1="936.484" y1="311.912" x2="965.318" y2="311.912"/>
		
			<line clip-path="url(#SVGID_2_)" fill="none" stroke="#FFFFFF" stroke-miterlimit="10" x1="936.872" y1="296.261" x2="936.872" y2="312.287"/>
		
			<line clip-path="url(#SVGID_2_)" fill="none" stroke="#FFFFFF" stroke-miterlimit="10" x1="924.715" y1="296.673" x2="936.872" y2="296.673"/>
		
			<line clip-path="url(#SVGID_2_)" fill="none" stroke="#FFFFFF" stroke-width="1.021" stroke-miterlimit="10" x1="924.715" y1="296.228" x2="924.715" y2="318.146"/>
		
			<line clip-path="url(#SVGID_2_)" fill="none" stroke="#FFFFFF" stroke-miterlimit="10" x1="909.706" y1="317.7" x2="924.715" y2="317.7"/>
		
			<line clip-path="url(#SVGID_2_)" fill="none" stroke="#FFFFFF" stroke-width="1.095" stroke-miterlimit="10" x1="909.706" y1="322.235" x2="909.706" y2="317.291"/>
		
			<line clip-path="url(#SVGID_2_)" fill="none" stroke="#FFFFFF" stroke-miterlimit="10" x1="926.06" y1="321.836" x2="889.31" y2="321.836"/>
		
			<line clip-path="url(#SVGID_2_)" fill="none" stroke="#FFFFFF" stroke-width="0.38" stroke-miterlimit="10" x1="926.06" y1="360.507" x2="926.06" y2="321.444"/>
		
			<line clip-path="url(#SVGID_2_)" fill="none" stroke="#FFFFFF" stroke-miterlimit="10" x1="770.198" y1="421.357" x2="770.198" y2="425.282"/>
		
			<line clip-path="url(#SVGID_2_)" fill="none" stroke="#FFFFFF" stroke-miterlimit="10" x1="770.522" y1="441.744" x2="770.522" y2="446.14"/>
		
			<line clip-path="url(#SVGID_2_)" fill="none" stroke="#FFFFFF" stroke-miterlimit="10" x1="744.896" y1="422.277" x2="744.896" y2="446.242"/>
		
			<line clip-path="url(#SVGID_2_)" fill="none" stroke="#FFFFFF" stroke-miterlimit="10" x1="708.973" y1="446.236" x2="744.896" y2="446.236"/>
		
			<line clip-path="url(#SVGID_2_)" fill="none" stroke="#FFFFFF" stroke-miterlimit="10" x1="729.29" y1="425.282" x2="729.29" y2="446.627"/>
		
			<line clip-path="url(#SVGID_2_)" fill="none" stroke="#FFFFFF" stroke-width="1.038" stroke-miterlimit="10" x1="717.193" y1="421.598" x2="717.193" y2="433.611"/>
		
			<line clip-path="url(#SVGID_2_)" fill="none" stroke="#FFFFFF" stroke-miterlimit="10" x1="708.973" y1="433.188" x2="717.64" y2="433.188"/>
		
			<line clip-path="url(#SVGID_2_)" fill="none" stroke="#FFFFFF" stroke-miterlimit="10" x1="733.646" y1="422.054" x2="717.194" y2="422.054"/>
		
			<line clip-path="url(#SVGID_2_)" fill="none" stroke="#FFFFFF" stroke-miterlimit="10" x1="815.925" y1="446.229" x2="761.295" y2="446.229"/>
		
			<line clip-path="url(#SVGID_2_)" fill="none" stroke="#FFFFFF" stroke-miterlimit="10" x1="753.807" y1="446.236" x2="744.896" y2="446.236"/>
		
			<line clip-path="url(#SVGID_2_)" fill="none" stroke="#FFFFFF" stroke-miterlimit="10" x1="770.522" y1="446.139" x2="770.522" y2="470.94"/>
		
			<line clip-path="url(#SVGID_2_)" fill="none" stroke="#FFFFFF" stroke-miterlimit="10" x1="783" y1="470.926" x2="761.294" y2="470.926"/>
		
			<line clip-path="url(#SVGID_2_)" fill="none" stroke="#FFFFFF" stroke-miterlimit="10" x1="782.523" y1="497.528" x2="782.523" y2="470.926"/>
		
			<line clip-path="url(#SVGID_2_)" fill="none" stroke="#FFFFFF" stroke-miterlimit="10" x1="733.982" y1="497.442" x2="783.001" y2="497.442"/>
		
			<line clip-path="url(#SVGID_2_)" fill="none" stroke="#FFFFFF" stroke-miterlimit="10" x1="734.454" y1="470.548" x2="734.454" y2="497.442"/>
		
			<line clip-path="url(#SVGID_2_)" fill="none" stroke="#FFFFFF" stroke-miterlimit="10" x1="753.807" y1="470.94" x2="734.453" y2="470.94"/>
		
			<line clip-path="url(#SVGID_2_)" fill="none" stroke="#FFFFFF" stroke-miterlimit="10" x1="846.927" y1="421.357" x2="846.927" y2="426.76"/>
		
			<line clip-path="url(#SVGID_2_)" fill="none" stroke="#FFFFFF" stroke-miterlimit="10" x1="846.725" y1="440.76" x2="846.725" y2="446.619"/>
		
			<line clip-path="url(#SVGID_2_)" fill="none" stroke="#FFFFFF" stroke-miterlimit="10" x1="839.625" y1="446.274" x2="847.22" y2="446.274"/>
		
			<line clip-path="url(#SVGID_2_)" fill="none" stroke="#FFFFFF" stroke-width="0.38" stroke-miterlimit="10" x1="839.981" y1="470.699" x2="846.864" y2="470.699"/>
		
			<line clip-path="url(#SVGID_2_)" fill="none" stroke="#FFFFFF" stroke-width="0.38" stroke-miterlimit="10" x1="815.924" y1="470.654" x2="809.395" y2="470.654"/>
		
			<line clip-path="url(#SVGID_2_)" fill="none" stroke="#FFFFFF" stroke-width="1.007" stroke-miterlimit="10" x1="744.896" y1="446.242" x2="744.896" y2="470.94"/>
		
			<line clip-path="url(#SVGID_2_)" fill="none" stroke="#FFFFFF" stroke-miterlimit="10" x1="363.468" y1="325.226" x2="363.468" y2="331.559"/>
		
			<line clip-path="url(#SVGID_2_)" fill="none" stroke="#FFFFFF" stroke-width="0.381" x1="769.979" y1="451.01" x2="765.464" y2="451.01"/>
		
			<line clip-path="url(#SVGID_2_)" fill="none" stroke="#FFFFFF" stroke-width="0.381" x1="769.979" y1="452.472" x2="765.464" y2="452.472"/>
		
			<line clip-path="url(#SVGID_2_)" fill="none" stroke="#FFFFFF" stroke-width="0.381" x1="769.979" y1="453.933" x2="765.464" y2="453.933"/>
		
			<line clip-path="url(#SVGID_2_)" fill="none" stroke="#FFFFFF" stroke-width="0.381" x1="769.979" y1="455.395" x2="765.464" y2="455.395"/>
		
			<line clip-path="url(#SVGID_2_)" fill="none" stroke="#FFFFFF" stroke-width="0.381" x1="769.979" y1="456.855" x2="765.464" y2="456.855"/>
		
			<line clip-path="url(#SVGID_2_)" fill="none" stroke="#FFFFFF" stroke-width="0.381" x1="769.979" y1="458.317" x2="765.464" y2="458.317"/>
		
			<line clip-path="url(#SVGID_2_)" fill="none" stroke="#FFFFFF" stroke-width="0.381" x1="769.979" y1="459.778" x2="765.464" y2="459.778"/>
		
			<line clip-path="url(#SVGID_2_)" fill="none" stroke="#FFFFFF" stroke-width="0.381" x1="769.979" y1="461.24" x2="765.464" y2="461.24"/>
		
			<line clip-path="url(#SVGID_2_)" fill="none" stroke="#FFFFFF" stroke-width="0.381" x1="769.979" y1="462.701" x2="765.464" y2="462.701"/>
		
			<line clip-path="url(#SVGID_2_)" fill="none" stroke="#FFFFFF" stroke-width="0.381" x1="769.979" y1="464.163" x2="765.464" y2="464.163"/>
		
			<line clip-path="url(#SVGID_2_)" fill="none" stroke="#FFFFFF" stroke-width="0.381" x1="769.979" y1="465.624" x2="765.464" y2="465.624"/>
		
			<line clip-path="url(#SVGID_2_)" fill="none" stroke="#FFFFFF" stroke-width="0.381" x1="769.979" y1="467.086" x2="765.464" y2="467.086"/>
		
			<line clip-path="url(#SVGID_2_)" fill="none" stroke="#FFFFFF" stroke-width="0.381" x1="769.979" y1="468.547" x2="765.464" y2="468.547"/>
		
			<line clip-path="url(#SVGID_2_)" fill="none" stroke="#FFFFFF" stroke-width="0.381" x1="769.979" y1="470.761" x2="769.979" y2="446.423"/>
		
			<line clip-path="url(#SVGID_2_)" fill="none" stroke="#FFFFFF" stroke-width="0.381" x1="765.464" y1="470.623" x2="765.464" y2="446.422"/>
		
			<line clip-path="url(#SVGID_2_)" fill="none" stroke="#FFFFFF" stroke-width="0.381" x1="770.134" y1="446.559" x2="761.294" y2="446.559"/>
		
			<line clip-path="url(#SVGID_2_)" fill="none" stroke="#FFFFFF" stroke-width="0.381" x1="770.134" y1="470.623" x2="761.396" y2="470.623"/>
		
			<line clip-path="url(#SVGID_2_)" fill="none" stroke="#FFFFFF" stroke-width="0.381" x1="765.688" y1="451.01" x2="761.396" y2="451.01"/>
		
			<line clip-path="url(#SVGID_2_)" fill="none" stroke="#FFFFFF" stroke-width="0.381" x1="764.233" y1="446.559" x2="764.233" y2="451.01"/>
		
			<line clip-path="url(#SVGID_2_)" fill="none" stroke="#FFFFFF" stroke-width="0.381" x1="762.949" y1="446.559" x2="762.949" y2="451.01"/>
		
			<line clip-path="url(#SVGID_2_)" fill="none" stroke="#FFFFFF" stroke-width="0.381" x1="770.134" y1="446.559" x2="761.346" y2="446.559"/>
		
			<line clip-path="url(#SVGID_2_)" fill="none" stroke="#FFFFFF" stroke-width="0.381" x1="761.593" y1="450.831" x2="761.593" y2="470.623"/>
		
			<line clip-path="url(#SVGID_2_)" fill="none" stroke="#FFFFFF" stroke-width="0.381" x1="745.122" y1="451.01" x2="749.638" y2="451.01"/>
		
			<line clip-path="url(#SVGID_2_)" fill="none" stroke="#FFFFFF" stroke-width="0.381" x1="745.122" y1="452.472" x2="749.638" y2="452.472"/>
		
			<line clip-path="url(#SVGID_2_)" fill="none" stroke="#FFFFFF" stroke-width="0.381" x1="745.122" y1="453.933" x2="749.638" y2="453.933"/>
		
			<line clip-path="url(#SVGID_2_)" fill="none" stroke="#FFFFFF" stroke-width="0.381" x1="745.122" y1="455.395" x2="749.638" y2="455.395"/>
		
			<line clip-path="url(#SVGID_2_)" fill="none" stroke="#FFFFFF" stroke-width="0.381" x1="745.122" y1="456.855" x2="749.638" y2="456.855"/>
		
			<line clip-path="url(#SVGID_2_)" fill="none" stroke="#FFFFFF" stroke-width="0.381" x1="745.122" y1="458.317" x2="749.638" y2="458.317"/>
		
			<line clip-path="url(#SVGID_2_)" fill="none" stroke="#FFFFFF" stroke-width="0.381" x1="745.122" y1="459.778" x2="749.638" y2="459.778"/>
		
			<line clip-path="url(#SVGID_2_)" fill="none" stroke="#FFFFFF" stroke-width="0.381" x1="745.122" y1="461.24" x2="749.638" y2="461.24"/>
		
			<line clip-path="url(#SVGID_2_)" fill="none" stroke="#FFFFFF" stroke-width="0.381" x1="745.122" y1="462.701" x2="749.638" y2="462.701"/>
		
			<line clip-path="url(#SVGID_2_)" fill="none" stroke="#FFFFFF" stroke-width="0.381" x1="745.122" y1="464.163" x2="749.638" y2="464.163"/>
		
			<line clip-path="url(#SVGID_2_)" fill="none" stroke="#FFFFFF" stroke-width="0.381" x1="745.122" y1="465.624" x2="749.638" y2="465.624"/>
		
			<line clip-path="url(#SVGID_2_)" fill="none" stroke="#FFFFFF" stroke-width="0.381" x1="745.122" y1="467.086" x2="749.638" y2="467.086"/>
		
			<line clip-path="url(#SVGID_2_)" fill="none" stroke="#FFFFFF" stroke-width="0.381" x1="745.122" y1="468.547" x2="749.638" y2="468.547"/>
		
			<line clip-path="url(#SVGID_2_)" fill="none" stroke="#FFFFFF" stroke-width="0.381" x1="745.122" y1="470.761" x2="745.122" y2="446.423"/>
		
			<line clip-path="url(#SVGID_2_)" fill="none" stroke="#FFFFFF" stroke-width="0.381" x1="749.638" y1="470.623" x2="749.638" y2="446.422"/>
		
			<line clip-path="url(#SVGID_2_)" fill="none" stroke="#FFFFFF" stroke-width="0.381" x1="744.968" y1="446.559" x2="753.807" y2="446.559"/>
		
			<line clip-path="url(#SVGID_2_)" fill="none" stroke="#FFFFFF" stroke-width="0.381" x1="744.968" y1="470.623" x2="753.706" y2="470.623"/>
		
			<line clip-path="url(#SVGID_2_)" fill="none" stroke="#FFFFFF" stroke-width="0.381" x1="749.414" y1="451.01" x2="753.706" y2="451.01"/>
		
			<line clip-path="url(#SVGID_2_)" fill="none" stroke="#FFFFFF" stroke-width="0.381" x1="750.867" y1="446.559" x2="750.867" y2="451.01"/>
		
			<line clip-path="url(#SVGID_2_)" fill="none" stroke="#FFFFFF" stroke-width="0.381" x1="752.152" y1="446.559" x2="752.152" y2="451.01"/>
		
			<line clip-path="url(#SVGID_2_)" fill="none" stroke="#FFFFFF" stroke-width="0.381" x1="744.968" y1="446.559" x2="753.756" y2="446.559"/>
		
			<line clip-path="url(#SVGID_2_)" fill="none" stroke="#FFFFFF" stroke-width="0.381" x1="753.509" y1="450.831" x2="753.509" y2="470.623"/>
		
			<line clip-path="url(#SVGID_2_)" fill="none" stroke="#FFFFFF" stroke-width="0.381" x1="751.25" y1="380.66" x2="751.25" y2="400.682"/>
		
			<line clip-path="url(#SVGID_2_)" fill="none" stroke="#FFFFFF" stroke-width="0.381" x1="751.434" y1="400.682" x2="745.036" y2="400.682"/>
		
			<line clip-path="url(#SVGID_2_)" fill="none" stroke="#FFFFFF" stroke-width="0.381" x1="751.434" y1="399.207" x2="745.036" y2="399.207"/>
		
			<line clip-path="url(#SVGID_2_)" fill="none" stroke="#FFFFFF" stroke-width="0.381" x1="751.434" y1="397.732" x2="745.036" y2="397.732"/>
		
			<line clip-path="url(#SVGID_2_)" fill="none" stroke="#FFFFFF" stroke-width="0.381" x1="751.434" y1="396.257" x2="745.036" y2="396.257"/>
		
			<line clip-path="url(#SVGID_2_)" fill="none" stroke="#FFFFFF" stroke-width="0.381" x1="751.434" y1="394.782" x2="745.036" y2="394.782"/>
		
			<line clip-path="url(#SVGID_2_)" fill="none" stroke="#FFFFFF" stroke-width="0.381" x1="755.831" y1="380.785" x2="745.036" y2="380.785"/>
		
			<line clip-path="url(#SVGID_2_)" fill="none" stroke="#FFFFFF" stroke-width="0.381" x1="755.831" y1="393.322" x2="745.036" y2="393.322"/>
		
			<line clip-path="url(#SVGID_2_)" fill="none" stroke="#FFFFFF" stroke-width="0.381" x1="755.645" y1="380.911" x2="755.645" y2="393.322"/>
		
			<line clip-path="url(#SVGID_2_)" fill="none" stroke="#FFFFFF" stroke-width="0.381" x1="754.17" y1="380.911" x2="754.17" y2="393.322"/>
		
			<line clip-path="url(#SVGID_2_)" fill="none" stroke="#FFFFFF" stroke-width="0.381" x1="752.695" y1="380.901" x2="752.695" y2="393.282"/>
		
			<line clip-path="url(#SVGID_2_)" fill="none" stroke="#FFFFFF" stroke-width="0.381" x1="751.25" y1="371.679" x2="751.25" y2="351.657"/>
		
			<line clip-path="url(#SVGID_2_)" fill="none" stroke="#FFFFFF" stroke-width="0.381" x1="751.434" y1="351.658" x2="745.036" y2="351.658"/>
		
			<line clip-path="url(#SVGID_2_)" fill="none" stroke="#FFFFFF" stroke-width="0.381" x1="751.434" y1="353.132" x2="745.036" y2="353.132"/>
		
			<line clip-path="url(#SVGID_2_)" fill="none" stroke="#FFFFFF" stroke-width="0.381" x1="751.434" y1="354.607" x2="745.036" y2="354.607"/>
		
			<line clip-path="url(#SVGID_2_)" fill="none" stroke="#FFFFFF" stroke-width="0.381" x1="751.434" y1="356.082" x2="745.036" y2="356.082"/>
		
			<line clip-path="url(#SVGID_2_)" fill="none" stroke="#FFFFFF" stroke-width="0.381" x1="751.434" y1="357.556" x2="745.036" y2="357.556"/>
		
			<line clip-path="url(#SVGID_2_)" fill="none" stroke="#FFFFFF" stroke-width="0.381" x1="755.831" y1="371.554" x2="745.036" y2="371.554"/>
		
			<line clip-path="url(#SVGID_2_)" fill="none" stroke="#FFFFFF" stroke-width="0.381" x1="755.831" y1="359.017" x2="745.036" y2="359.017"/>
		
			<line clip-path="url(#SVGID_2_)" fill="none" stroke="#FFFFFF" stroke-width="0.381" x1="755.645" y1="371.428" x2="755.645" y2="359.017"/>
		
			<line clip-path="url(#SVGID_2_)" fill="none" stroke="#FFFFFF" stroke-width="0.381" x1="754.17" y1="371.428" x2="754.17" y2="359.017"/>
		
			<line clip-path="url(#SVGID_2_)" fill="none" stroke="#FFFFFF" stroke-width="0.381" x1="752.695" y1="371.438" x2="752.695" y2="359.057"/>
		
			<rect x="422.046" y="370.078" clip-path="url(#SVGID_2_)" fill="none" stroke="#FFFFFF" stroke-width="0.381" width="4.38" height="6.651"/>
		
			<line clip-path="url(#SVGID_2_)" fill="none" stroke="#FFFFFF" stroke-width="0.381" x1="424.966" y1="370.079" x2="424.966" y2="376.729"/>
		
			<line clip-path="url(#SVGID_2_)" fill="none" stroke="#FFFFFF" stroke-width="0.381" x1="423.506" y1="370.13" x2="423.506" y2="376.678"/>
		
			<rect x="357.507" y="370.078" clip-path="url(#SVGID_2_)" fill="none" stroke="#FFFFFF" stroke-width="0.381" width="4.38" height="6.651"/>
		
			<line clip-path="url(#SVGID_2_)" fill="none" stroke="#FFFFFF" stroke-width="0.381" x1="360.426" y1="370.079" x2="360.426" y2="376.729"/>
		
			<line clip-path="url(#SVGID_2_)" fill="none" stroke="#FFFFFF" stroke-width="0.381" x1="358.967" y1="370.13" x2="358.967" y2="376.678"/>
		<line clip-path="url(#SVGID_2_)" fill="none" stroke="#FFFFFF" x1="803.969" y1="26.554" x2="948.685" y2="26.554"/>
		<line clip-path="url(#SVGID_2_)" fill="none" stroke="#FFFFFF" x1="772.4" y1="33.442" x2="745.036" y2="33.442"/>
		<polyline clip-path="url(#SVGID_2_)" fill="none" stroke="#FFFFFF" stroke-linecap="square" points="313.189,395.753 
			301.385,395.753 301.385,416.775 313.189,416.775 313.189,517.855 467.171,518.021 467.171,550.009 467.171,704.699 
			516.136,704.699 516.136,400.621 695.997,400.621 709.68,400.621 		"/>
		<polyline clip-path="url(#SVGID_2_)" fill="none" stroke="#FFFFFF" stroke-linecap="square" points="787.793,199.912 
			954.812,199.912 954.812,220.151 934.191,220.151 984.65,271.484 1004.725,271.484 1004.725,309.5 990.57,309.5 1021.628,340.577 
			1021.628,411.567 987.854,446.65 		"/>
		
			<line clip-path="url(#SVGID_2_)" fill="none" stroke="#FFFFFF" stroke-linecap="square" x1="987.456" y1="446.761" x2="848.221" y2="446.761"/>
		<polyline clip-path="url(#SVGID_2_)" fill="none" stroke="#FFFFFF" stroke-linecap="square" points="745.508,32.961 
			745.508,23.07 699.329,23.07 699.329,26.786 689.453,26.786 689.453,51.122 675.339,51.122 675.339,113.422 690.403,113.422 
			690.403,352.34 517.531,352.34 517.531,46.404 469.587,46.404 469.223,234.341 313.238,234.341 313.238,335.405 301.433,335.405 
			301.433,357.282 313.238,357.282 		"/>
		<polyline clip-path="url(#SVGID_2_)" fill="none" stroke="#FFFFFF" stroke-linecap="square" points="810.267,727.2 709.65,727.2 
			709.65,548.078 709.653,545.104 695.015,545.104 695.015,491.728 709.653,491.728 709.65,489.988 709.65,400.682 		"/>
		
			<line clip-path="url(#SVGID_2_)" fill="none" stroke="#FFFFFF" stroke-linecap="square" x1="787.793" y1="199.912" x2="787.793" y2="140.225"/>
		
			<line clip-path="url(#SVGID_2_)" fill="none" stroke="#FFFFFF" stroke-linecap="square" x1="948.645" y1="140.225" x2="787.793" y2="140.225"/>
		
			<line clip-path="url(#SVGID_2_)" fill="none" stroke="#FFFFFF" stroke-linecap="square" x1="948.178" y1="26.554" x2="948.178" y2="140.225"/>
		
			<line clip-path="url(#SVGID_2_)" fill="none" stroke="#FFFFFF" stroke-linecap="square" x1="803.969" y1="36.84" x2="803.969" y2="26.11"/>
		
			<line clip-path="url(#SVGID_2_)" fill="none" stroke="#FFFFFF" stroke-linecap="square" x1="771.895" y1="36.84" x2="804.465" y2="36.84"/>
		
			<line clip-path="url(#SVGID_2_)" fill="none" stroke="#FFFFFF" stroke-linecap="square" x1="771.895" y1="33.442" x2="771.895" y2="37.297"/>
		
			<line clip-path="url(#SVGID_2_)" fill="none" stroke="#FFFFFF" stroke-linecap="square" x1="848.221" y1="446.761" x2="848.221" y2="522.112"/>
		
			<line clip-path="url(#SVGID_2_)" fill="none" stroke="#FFFFFF" stroke-linecap="square" x1="810.403" y1="522.113" x2="848.221" y2="522.113"/>
		
			<line clip-path="url(#SVGID_2_)" fill="none" stroke="#FFFFFF" stroke-linecap="square" x1="810.267" y1="726.716" x2="810.267" y2="522.112"/>
		
			<line clip-path="url(#SVGID_2_)" fill="none" stroke="#FFFFFF" stroke-linecap="square" x1="810.267" y1="522.113" x2="810.267" y2="446.422"/>
		
			<line clip-path="url(#SVGID_2_)" fill="none" stroke="#FFFFFF" stroke-linecap="square" x1="313.238" y1="335.404" x2="313.238" y2="359.316"/>
		<polygon clip-path="url(#SVGID_2_)" fill="#FFFFFF" points="953.545,294.022 955.703,296.183 957.86,294.022 957.86,292.88 
			956.109,294.632 956.109,291.034 955.297,291.034 955.297,294.632 953.545,292.88 		"/>
		<polygon clip-path="url(#SVGID_2_)" fill="#FFFFFF" points="961.686,296.232 961.686,292.634 963.438,294.385 963.438,293.241 
			961.279,291.083 959.12,293.241 959.12,294.384 960.873,292.634 960.873,296.232 		"/>
		<g clip-path="url(#SVGID_2_)">
			<defs>
				<rect id="SVGID_11_" width="1334" height="749.996"/>
			</defs>
			<clipPath id="SVGID_12_">
				<use xlink:href="#SVGID_11_"  overflow="visible"/>
			</clipPath>
			<path clip-path="url(#SVGID_12_)" fill="#FFFFFF" d="M951.667,311.454h13.662v-13.662h-13.662V311.454z M962.158,300.387
				c0.368,0,0.666,0.3,0.666,0.669c0,0.368-0.298,0.666-0.666,0.666s-0.668-0.298-0.668-0.666
				C961.49,300.687,961.79,300.387,962.158,300.387 M958.508,300.387c0.369,0,0.666,0.3,0.666,0.669
				c0,0.368-0.297,0.666-0.666,0.666c-0.367,0-0.667-0.298-0.667-0.666C957.841,300.687,958.141,300.387,958.508,300.387
				 M954.839,300.387c0.367,0,0.667,0.3,0.667,0.669c0,0.368-0.3,0.666-0.667,0.666c-0.369,0-0.666-0.298-0.666-0.666
				C954.173,300.687,954.47,300.387,954.839,300.387 M956.366,304.836c0,0.213-0.173,0.385-0.389,0.385h-0.216v3.382
				c0,0.235-0.189,0.422-0.424,0.422c-0.231,0-0.423-0.187-0.423-0.422h-0.151c0,0.235-0.189,0.422-0.422,0.422
				c-0.236,0-0.425-0.187-0.425-0.422v-3.382h-0.216c-0.216,0-0.39-0.172-0.39-0.385v-2.487c0-0.214,0.174-0.387,0.39-0.387h2.276
				c0.216,0,0.389,0.173,0.389,0.387V304.836z M960.034,304.836c0,0.213-0.173,0.385-0.387,0.385h-0.216v3.382
				c0,0.235-0.191,0.422-0.425,0.422s-0.422-0.187-0.422-0.422h-0.153c0,0.235-0.188,0.422-0.422,0.422
				c-0.234,0-0.422-0.187-0.422-0.422v-3.382h-0.218c-0.216,0-0.39-0.172-0.39-0.385v-2.487c0-0.214,0.174-0.387,0.39-0.387h2.277
				c0.214,0,0.387,0.173,0.387,0.387V304.836z M963.685,304.836c0,0.213-0.173,0.385-0.387,0.385h-0.217v3.382
				c0,0.235-0.19,0.422-0.425,0.422c-0.232,0-0.423-0.187-0.423-0.422h-0.151c0,0.235-0.189,0.422-0.422,0.422
				c-0.235,0-0.424-0.187-0.424-0.422v-3.382h-0.218c-0.214,0-0.388-0.172-0.388-0.385v-2.487c0-0.214,0.174-0.387,0.388-0.387
				h2.279c0.214,0,0.387,0.173,0.387,0.387V304.836z"/>
		</g>
		<g clip-path="url(#SVGID_2_)">
			
				<text transform="matrix(-6.123234e-17 1 -1 -6.123234e-17 965.4746 317.1426)" fill="#FFFFFF" font-family="'Helvetica'" font-size="6.7408"> </text>
		</g>
		<g clip-path="url(#SVGID_2_)">
			<defs>
				<rect id="SVGID_13_" width="1334" height="749.996"/>
			</defs>
			<clipPath id="SVGID_14_">
				<use xlink:href="#SVGID_13_"  overflow="visible"/>
			</clipPath>
			<polygon clip-path="url(#SVGID_14_)" fill="#FFFFFF" points="728.104,458.403 730.263,460.563 732.419,458.403 732.419,457.26 
				730.668,459.012 730.668,455.414 729.855,455.414 729.855,459.012 728.104,457.26 			"/>
			<polygon clip-path="url(#SVGID_14_)" fill="#FFFFFF" points="736.244,460.612 736.244,457.015 737.998,458.766 737.998,457.622 
				735.838,455.464 733.679,457.622 733.679,458.765 735.432,457.015 735.432,460.612 			"/>
			<path clip-path="url(#SVGID_14_)" fill="#FFFFFF" d="M726.226,475.834h13.662v-13.662h-13.662V475.834z M736.717,464.768
				c0.369,0,0.666,0.3,0.666,0.669c0,0.367-0.297,0.666-0.666,0.666c-0.368,0-0.668-0.299-0.668-0.666
				C736.049,465.067,736.349,464.768,736.717,464.768 M733.066,464.768c0.369,0,0.666,0.3,0.666,0.669
				c0,0.367-0.297,0.666-0.666,0.666c-0.367,0-0.667-0.299-0.667-0.666C732.399,465.067,732.699,464.768,733.066,464.768
				 M729.397,464.768c0.367,0,0.667,0.3,0.667,0.669c0,0.367-0.3,0.666-0.667,0.666c-0.369,0-0.666-0.299-0.666-0.666
				C728.731,465.067,729.028,464.768,729.397,464.768 M730.925,469.216c0,0.213-0.172,0.386-0.389,0.386h-0.216v3.382
				c0,0.234-0.189,0.422-0.424,0.422c-0.23,0-0.423-0.188-0.423-0.422h-0.151c0,0.234-0.189,0.422-0.422,0.422
				c-0.236,0-0.425-0.188-0.425-0.422v-3.382h-0.216c-0.215,0-0.39-0.173-0.39-0.386v-2.486c0-0.215,0.175-0.388,0.39-0.388h2.276
				c0.217,0,0.389,0.173,0.389,0.388V469.216z M734.593,469.216c0,0.213-0.172,0.386-0.387,0.386h-0.216v3.382
				c0,0.234-0.191,0.422-0.425,0.422s-0.422-0.188-0.422-0.422h-0.153c0,0.234-0.188,0.422-0.422,0.422
				c-0.234,0-0.422-0.188-0.422-0.422v-3.382h-0.218c-0.215,0-0.39-0.173-0.39-0.386v-2.486c0-0.215,0.175-0.388,0.39-0.388h2.277
				c0.215,0,0.387,0.173,0.387,0.388V469.216z M738.243,469.216c0,0.213-0.173,0.386-0.387,0.386h-0.217v3.382
				c0,0.234-0.19,0.422-0.425,0.422c-0.232,0-0.422-0.188-0.422-0.422h-0.152c0,0.234-0.189,0.422-0.422,0.422
				c-0.235,0-0.423-0.188-0.423-0.422v-3.382h-0.219c-0.213,0-0.388-0.173-0.388-0.386v-2.486c0-0.215,0.175-0.388,0.388-0.388
				h2.279c0.214,0,0.387,0.173,0.387,0.388V469.216z"/>
		</g>
		<g clip-path="url(#SVGID_2_)">
			
				<text transform="matrix(-6.123234e-17 1 -1 -6.123234e-17 764.5791 535.3145)" fill="#FFFFFF" font-family="'Helvetica'" font-size="6.7408"> </text>
		</g>
		<g clip-path="url(#SVGID_2_)">
			
				<text transform="matrix(-6.123234e-17 1 -1 -6.123234e-17 764.5791 543.0664)" fill="#FFFFFF" font-family="'Helvetica'" font-size="6.7408"> </text>
		</g>
		<g clip-path="url(#SVGID_2_)">
			<defs>
				<rect id="SVGID_15_" width="1334" height="749.996"/>
			</defs>
			<clipPath id="SVGID_16_">
				<use xlink:href="#SVGID_15_"  overflow="visible"/>
			</clipPath>
			<polygon clip-path="url(#SVGID_16_)" fill="#FFFFFF" points="722.185,398.021 724.343,400.182 726.5,398.021 726.5,396.878 
				724.749,398.63 724.749,395.032 723.937,395.032 723.937,398.63 722.185,396.878 			"/>
			<polygon clip-path="url(#SVGID_16_)" fill="#FFFFFF" points="730.325,400.23 730.325,396.633 732.078,398.384 732.078,397.24 
				729.918,395.082 727.76,397.24 727.76,398.383 729.513,396.633 729.513,400.23 			"/>
			<path clip-path="url(#SVGID_16_)" fill="#FFFFFF" d="M720.307,415.452h13.662V401.79h-13.662V415.452z M730.797,404.386
				c0.369,0,0.666,0.3,0.666,0.669c0,0.367-0.297,0.666-0.666,0.666c-0.367,0-0.668-0.299-0.668-0.666
				C730.129,404.686,730.43,404.386,730.797,404.386 M727.147,404.386c0.369,0,0.666,0.3,0.666,0.669
				c0,0.367-0.297,0.666-0.666,0.666c-0.367,0-0.667-0.299-0.667-0.666C726.48,404.686,726.78,404.386,727.147,404.386
				 M723.479,404.386c0.367,0,0.667,0.3,0.667,0.669c0,0.367-0.3,0.666-0.667,0.666c-0.369,0-0.666-0.299-0.666-0.666
				C722.812,404.686,723.109,404.386,723.479,404.386 M725.005,408.834c0,0.213-0.172,0.386-0.388,0.386h-0.216v3.382
				c0,0.234-0.19,0.422-0.424,0.422c-0.231,0-0.423-0.188-0.423-0.422h-0.151c0,0.234-0.19,0.422-0.422,0.422
				c-0.236,0-0.425-0.188-0.425-0.422v-3.382h-0.217c-0.215,0-0.389-0.173-0.389-0.386v-2.486c0-0.215,0.174-0.388,0.389-0.388
				h2.277c0.216,0,0.388,0.173,0.388,0.388V408.834z M728.673,408.834c0,0.213-0.172,0.386-0.386,0.386h-0.216v3.382
				c0,0.234-0.192,0.422-0.424,0.422c-0.234,0-0.423-0.188-0.423-0.422h-0.153c0,0.234-0.189,0.422-0.422,0.422
				c-0.234,0-0.422-0.188-0.422-0.422v-3.382h-0.218c-0.215,0-0.39-0.173-0.39-0.386v-2.486c0-0.215,0.175-0.388,0.39-0.388h2.277
				c0.214,0,0.386,0.173,0.386,0.388V408.834z M732.324,408.834c0,0.213-0.173,0.386-0.387,0.386h-0.217v3.382
				c0,0.234-0.19,0.422-0.426,0.422c-0.231,0-0.422-0.188-0.422-0.422h-0.151c0,0.234-0.189,0.422-0.423,0.422
				c-0.234,0-0.423-0.188-0.423-0.422v-3.382h-0.218c-0.213,0-0.388-0.173-0.388-0.386v-2.486c0-0.215,0.175-0.388,0.388-0.388
				h2.279c0.214,0,0.387,0.173,0.387,0.388V408.834z"/>
		</g>
		<g clip-path="url(#SVGID_2_)">
			
				<text transform="matrix(-6.123234e-17 1 -1 -6.123234e-17 717.9121 412.1699)" fill="#FFFFFF" font-family="'Helvetica'" font-size="6.7408"> </text>
		</g>
		<g clip-path="url(#SVGID_2_)">
			
				<text transform="matrix(-6.123234e-17 1 -1 -6.123234e-17 717.9141 419.9219)" fill="#FFFFFF" font-family="'Helvetica'" font-size="6.7408"> </text>
		</g>
		<g clip-path="url(#SVGID_2_)">
			<defs>
				<rect id="SVGID_17_" width="1334" height="749.996"/>
			</defs>
			<clipPath id="SVGID_18_">
				<use xlink:href="#SVGID_17_"  overflow="visible"/>
			</clipPath>
			<polygon clip-path="url(#SVGID_18_)" fill="#FFFFFF" points="469.752,379.718 471.912,381.878 474.068,379.718 474.068,378.575 
				472.317,380.327 472.317,376.729 471.504,376.729 471.504,380.327 469.752,378.575 			"/>
			<polygon clip-path="url(#SVGID_18_)" fill="#FFFFFF" points="477.894,381.928 477.894,378.33 479.647,380.081 479.647,378.937 
				477.487,376.778 475.328,378.937 475.328,380.08 477.081,378.33 477.081,381.928 			"/>
			<path clip-path="url(#SVGID_18_)" fill="#FFFFFF" d="M467.875,397.149h13.662v-13.662h-13.662V397.149z M478.366,386.082
				c0.369,0,0.666,0.3,0.666,0.669c0,0.368-0.297,0.666-0.666,0.666c-0.368,0-0.668-0.298-0.668-0.666
				C477.698,386.382,477.998,386.082,478.366,386.082 M474.716,386.082c0.369,0,0.666,0.3,0.666,0.669
				c0,0.368-0.297,0.666-0.666,0.666c-0.367,0-0.667-0.298-0.667-0.666C474.049,386.382,474.349,386.082,474.716,386.082
				 M471.047,386.082c0.367,0,0.667,0.3,0.667,0.669c0,0.368-0.3,0.666-0.667,0.666c-0.369,0-0.666-0.298-0.666-0.666
				C470.381,386.382,470.678,386.082,471.047,386.082 M472.574,390.531c0,0.213-0.172,0.385-0.388,0.385h-0.216v3.382
				c0,0.235-0.19,0.422-0.424,0.422c-0.231,0-0.423-0.187-0.423-0.422h-0.151c0,0.235-0.19,0.422-0.422,0.422
				c-0.236,0-0.425-0.187-0.425-0.422v-3.382h-0.216c-0.215,0-0.389-0.172-0.389-0.385v-2.487c0-0.214,0.174-0.387,0.389-0.387
				h2.277c0.216,0,0.388,0.173,0.388,0.387V390.531z M476.242,390.531c0,0.213-0.172,0.385-0.386,0.385h-0.216v3.382
				c0,0.235-0.192,0.422-0.425,0.422c-0.233,0-0.422-0.187-0.422-0.422h-0.153c0,0.235-0.189,0.422-0.422,0.422
				c-0.234,0-0.422-0.187-0.422-0.422v-3.382h-0.218c-0.215,0-0.389-0.172-0.389-0.385v-2.487c0-0.214,0.174-0.387,0.389-0.387
				h2.278c0.214,0,0.386,0.173,0.386,0.387V390.531z M479.893,390.531c0,0.213-0.173,0.385-0.387,0.385h-0.217v3.382
				c0,0.235-0.19,0.422-0.425,0.422c-0.232,0-0.422-0.187-0.422-0.422h-0.152c0,0.235-0.189,0.422-0.422,0.422
				c-0.235,0-0.423-0.187-0.423-0.422v-3.382h-0.218c-0.213,0-0.388-0.172-0.388-0.385v-2.487c0-0.214,0.175-0.387,0.388-0.387
				h2.279c0.214,0,0.387,0.173,0.387,0.387V390.531z"/>
		</g>
		<g clip-path="url(#SVGID_2_)">
			
				<text transform="matrix(-6.123234e-17 1 -1 -6.123234e-17 466.2793 415.6133)" fill="#FFFFFF" font-family="'Helvetica'" font-size="6.7408"> </text>
		</g>
		<g clip-path="url(#SVGID_2_)">
			
				<text transform="matrix(-6.123234e-17 1 -1 -6.123234e-17 466.2793 423.3652)" fill="#FFFFFF" font-family="'Helvetica'" font-size="6.7408"> </text>
		</g>
		<g clip-path="url(#SVGID_2_)">
			<defs>
				<rect id="SVGID_19_" width="1334" height="749.996"/>
			</defs>
			<clipPath id="SVGID_20_">
				<use xlink:href="#SVGID_19_"  overflow="visible"/>
			</clipPath>
			<polygon clip-path="url(#SVGID_20_)" fill="#FFFFFF" points="352.607,333.729 354.767,335.889 356.924,333.729 356.924,332.585 
				355.172,334.337 355.172,330.74 354.359,330.74 354.359,334.337 352.607,332.585 			"/>
			<polygon clip-path="url(#SVGID_20_)" fill="#FFFFFF" points="360.749,335.938 360.749,332.34 362.502,334.091 362.502,332.947 
				360.342,330.789 358.183,332.947 358.183,334.09 359.936,332.34 359.936,335.938 			"/>
			<path clip-path="url(#SVGID_20_)" fill="#FFFFFF" d="M350.729,351.16h13.662v-13.662h-13.662V351.16z M361.221,340.093
				c0.369,0,0.666,0.3,0.666,0.669c0,0.368-0.297,0.666-0.666,0.666c-0.368,0-0.668-0.298-0.668-0.666
				C360.553,340.393,360.853,340.093,361.221,340.093 M357.571,340.093c0.369,0,0.666,0.3,0.666,0.669
				c0,0.368-0.297,0.666-0.666,0.666c-0.367,0-0.667-0.298-0.667-0.666C356.904,340.393,357.204,340.093,357.571,340.093
				 M353.902,340.093c0.367,0,0.667,0.3,0.667,0.669c0,0.368-0.3,0.666-0.667,0.666c-0.369,0-0.666-0.298-0.666-0.666
				C353.236,340.393,353.533,340.093,353.902,340.093 M355.429,344.542c0,0.213-0.172,0.385-0.388,0.385h-0.216v3.382
				c0,0.235-0.19,0.422-0.424,0.422c-0.231,0-0.423-0.187-0.423-0.422h-0.151c0,0.235-0.19,0.422-0.422,0.422
				c-0.236,0-0.425-0.187-0.425-0.422v-3.382h-0.216c-0.215,0-0.389-0.172-0.389-0.385v-2.487c0-0.214,0.174-0.387,0.389-0.387
				h2.277c0.216,0,0.388,0.173,0.388,0.387V344.542z M359.097,344.542c0,0.213-0.172,0.385-0.386,0.385h-0.216v3.382
				c0,0.235-0.192,0.422-0.425,0.422s-0.422-0.187-0.422-0.422h-0.153c0,0.235-0.189,0.422-0.422,0.422
				c-0.234,0-0.422-0.187-0.422-0.422v-3.382h-0.218c-0.215,0-0.389-0.172-0.389-0.385v-2.487c0-0.214,0.174-0.387,0.389-0.387
				h2.278c0.214,0,0.386,0.173,0.386,0.387V344.542z M362.748,344.542c0,0.213-0.173,0.385-0.387,0.385h-0.217v3.382
				c0,0.235-0.19,0.422-0.425,0.422c-0.232,0-0.422-0.187-0.422-0.422h-0.152c0,0.235-0.189,0.422-0.422,0.422
				c-0.235,0-0.423-0.187-0.423-0.422v-3.382h-0.218c-0.213,0-0.388-0.172-0.388-0.385v-2.487c0-0.214,0.175-0.387,0.388-0.387
				h2.279c0.214,0,0.387,0.173,0.387,0.387V344.542z"/>
		</g>
		<g clip-path="url(#SVGID_2_)">
			
				<text transform="matrix(-6.123234e-17 1 -1 -6.123234e-17 357.9731 340.0986)" fill="#FFFFFF" font-family="'Helvetica'" font-size="6.7408"> </text>
		</g>
		<g clip-path="url(#SVGID_2_)">
			<text transform="matrix(1 0 0 1 930.0596 304.6763)" fill="#FFFFFF" font-family="'Helvetica'" font-size="4.0445"> </text>
		</g>
		<g clip-path="url(#SVGID_2_)">
			<defs>
				<rect id="SVGID_21_" width="1334" height="749.996"/>
			</defs>
			<clipPath id="SVGID_22_">
				<use xlink:href="#SVGID_21_"  overflow="visible"/>
			</clipPath>
			<path clip-path="url(#SVGID_22_)" fill="#FFFFFF" d="M930.489,298.792c0.362,0,0.65,0.3,0.65,0.662c0,0.36-0.288,0.65-0.65,0.65
				c-0.36,0-0.649-0.299-0.649-0.661C929.84,299.081,930.139,298.792,930.489,298.792 M929.158,301.033
				c0.155-0.537,0.394-0.764,0.93-0.764h0.774c0.476,0,0.743,0.165,0.909,0.724l0.494,1.671c0.062,0.218,0.062,0.228,0.062,0.258
				c0,0.145-0.111,0.249-0.257,0.249c-0.217,0-0.259-0.124-0.341-0.393l-0.476-1.569h-0.145l0.9,3.087h-0.818v2.159
				c0,0.257-0.052,0.454-0.299,0.454c-0.268,0-0.32-0.207-0.32-0.466v-2.147h-0.165v2.159c0,0.247-0.03,0.454-0.301,0.454
				c-0.307,0-0.317-0.218-0.317-0.486v-2.127h-0.807l0.849-3.087h-0.146l-0.486,1.611c-0.071,0.237-0.135,0.34-0.287,0.34
				c-0.136,0-0.27-0.123-0.27-0.268L929.158,301.033z"/>
		</g>
		<g clip-path="url(#SVGID_2_)">
			<text transform="matrix(1 0 0 1 927.8613 304.6772)" fill="#FFFFFF" font-family="'Helvetica'" font-size="4.0445"> </text>
		</g>
		<g clip-path="url(#SVGID_2_)">
			<text transform="matrix(1 0 0 1 932.5332 304.6772)" fill="#FFFFFF" font-family="'Helvetica'" font-size="4.0445"> </text>
		</g>
		<g clip-path="url(#SVGID_2_)">
			<defs>
				<rect id="SVGID_23_" width="1334" height="749.996"/>
			</defs>
			<clipPath id="SVGID_24_">
				<use xlink:href="#SVGID_23_"  overflow="visible"/>
			</clipPath>
			<path clip-path="url(#SVGID_24_)" fill="#FFFFFF" d="M957.663,324.378v-1.721h0.176v5.1c0,0.281,0.146,0.446,0.375,0.446
				c0.228,0,0.372-0.165,0.372-0.446v-2.964h0.187v2.964c0,0.281,0.146,0.435,0.373,0.435c0.229,0,0.374-0.154,0.374-0.435v-5.1
				h0.176v1.721c0,0.27,0.094,0.405,0.28,0.405s0.279-0.135,0.279-0.405v-1.803c0-0.643-0.363-0.996-0.994-0.996H958.1
				c-0.634,0-0.996,0.353-0.996,0.996v1.803c0,0.27,0.093,0.405,0.28,0.405C957.582,324.783,957.663,324.648,957.663,324.378"/>
			<path clip-path="url(#SVGID_24_)" fill="#FFFFFF" d="M959.353,320.75c0-0.364-0.311-0.663-0.663-0.663s-0.664,0.299-0.664,0.663
				c0,0.362,0.322,0.664,0.664,0.664C959.042,321.414,959.353,321.112,959.353,320.75"/>
		</g>
		<g clip-path="url(#SVGID_2_)">
			<text transform="matrix(1 0 0 1 955.9219 326.0088)" fill="#FFFFFF" font-family="'Helvetica'" font-size="4.0445"> </text>
		</g>
		<g clip-path="url(#SVGID_2_)">
			<text transform="matrix(1 0 0 1 960.8604 326.0088)" fill="#FFFFFF" font-family="'Helvetica'" font-size="4.0445"> </text>
		</g>
		<g clip-path="url(#SVGID_2_)">
			<text transform="matrix(1 0 0 1 736.415 430.7285)" fill="#FFFFFF" font-family="'Helvetica'" font-size="4.0445"> </text>
		</g>
		<g clip-path="url(#SVGID_2_)">
			<defs>
				<rect id="SVGID_25_" width="1334" height="749.996"/>
			</defs>
			<clipPath id="SVGID_26_">
				<use xlink:href="#SVGID_25_"  overflow="visible"/>
			</clipPath>
			<path clip-path="url(#SVGID_26_)" fill="#FFFFFF" d="M736.846,424.844c0.362,0,0.65,0.3,0.65,0.662c0,0.36-0.288,0.65-0.65,0.65
				c-0.361,0-0.649-0.3-0.649-0.661C736.196,425.133,736.495,424.844,736.846,424.844 M735.515,427.085
				c0.155-0.537,0.394-0.764,0.929-0.764h0.775c0.475,0,0.743,0.166,0.909,0.724l0.494,1.671c0.062,0.218,0.062,0.229,0.062,0.258
				c0,0.146-0.111,0.249-0.257,0.249c-0.217,0-0.259-0.124-0.341-0.393l-0.477-1.569h-0.144l0.9,3.087h-0.818v2.159
				c0,0.257-0.052,0.454-0.298,0.454c-0.27,0-0.321-0.207-0.321-0.466v-2.147h-0.165v2.159c0,0.247-0.031,0.454-0.301,0.454
				c-0.307,0-0.318-0.218-0.318-0.486v-2.127h-0.806l0.848-3.087h-0.145l-0.486,1.611c-0.071,0.237-0.135,0.34-0.288,0.34
				c-0.135,0-0.269-0.123-0.269-0.268L735.515,427.085z"/>
		</g>
		<g clip-path="url(#SVGID_2_)">
			<text transform="matrix(1 0 0 1 734.2178 430.7295)" fill="#FFFFFF" font-family="'Helvetica'" font-size="4.0445"> </text>
		</g>
		<g clip-path="url(#SVGID_2_)">
			<text transform="matrix(1 0 0 1 738.8887 430.7295)" fill="#FFFFFF" font-family="'Helvetica'" font-size="4.0445"> </text>
		</g>
		<g clip-path="url(#SVGID_2_)">
			<defs>
				<rect id="SVGID_27_" width="1334" height="749.996"/>
			</defs>
			<clipPath id="SVGID_28_">
				<use xlink:href="#SVGID_27_"  overflow="visible"/>
			</clipPath>
			<path clip-path="url(#SVGID_28_)" fill="#FFFFFF" d="M721.789,429.302v-1.721h0.176v5.1c0,0.281,0.146,0.446,0.375,0.446
				s0.372-0.165,0.372-0.446v-2.964h0.187v2.964c0,0.281,0.146,0.436,0.373,0.436c0.229,0,0.374-0.154,0.374-0.436v-5.1h0.177v1.721
				c0,0.271,0.093,0.405,0.279,0.405s0.279-0.135,0.279-0.405v-1.803c0-0.644-0.363-0.996-0.994-0.996h-1.161
				c-0.634,0-0.996,0.353-0.996,0.996v1.803c0,0.271,0.094,0.405,0.28,0.405C721.708,429.707,721.789,429.572,721.789,429.302"/>
			<path clip-path="url(#SVGID_28_)" fill="#FFFFFF" d="M723.479,425.674c0-0.363-0.312-0.663-0.663-0.663
				c-0.354,0-0.665,0.3-0.665,0.663c0,0.362,0.323,0.664,0.665,0.664C723.168,426.338,723.479,426.036,723.479,425.674"/>
		</g>
		<g clip-path="url(#SVGID_2_)">
			<text transform="matrix(1 0 0 1 720.0479 430.9316)" fill="#FFFFFF" font-family="'Helvetica'" font-size="4.0445"> </text>
		</g>
		<g clip-path="url(#SVGID_2_)">
			<text transform="matrix(1 0 0 1 724.9863 430.9316)" fill="#FFFFFF" font-family="'Helvetica'" font-size="4.0445"> </text>
		</g>
		<g clip-path="url(#SVGID_2_)">
			<text transform="matrix(1 0 0 1 376.2861 342.5879)" fill="#FFFFFF" font-family="'Helvetica'" font-size="4.0445"> </text>
		</g>
		<g clip-path="url(#SVGID_2_)">
			<defs>
				<rect id="SVGID_29_" width="1334" height="749.996"/>
			</defs>
			<clipPath id="SVGID_30_">
				<use xlink:href="#SVGID_29_"  overflow="visible"/>
			</clipPath>
			<path clip-path="url(#SVGID_30_)" fill="#FFFFFF" d="M376.714,336.702c0.362,0,0.65,0.3,0.65,0.662c0,0.36-0.288,0.65-0.65,0.65
				c-0.361,0-0.65-0.299-0.65-0.661S376.363,336.702,376.714,336.702 M375.383,338.943c0.155-0.537,0.393-0.764,0.929-0.764h0.775
				c0.475,0,0.743,0.166,0.909,0.724l0.493,1.671c0.063,0.218,0.063,0.228,0.063,0.258c0,0.145-0.112,0.249-0.257,0.249
				c-0.217,0-0.259-0.124-0.341-0.393l-0.476-1.569h-0.144l0.9,3.087h-0.818v2.159c0,0.257-0.052,0.454-0.299,0.454
				c-0.269,0-0.32-0.207-0.32-0.466v-2.147h-0.165v2.159c0,0.247-0.032,0.454-0.301,0.454c-0.307,0-0.318-0.218-0.318-0.486v-2.127
				h-0.806l0.847-3.087h-0.144l-0.486,1.611c-0.072,0.237-0.135,0.34-0.288,0.34c-0.135,0-0.269-0.123-0.269-0.268L375.383,338.943z
				"/>
		</g>
		<g clip-path="url(#SVGID_2_)">
			<text transform="matrix(1 0 0 1 374.0864 342.5874)" fill="#FFFFFF" font-family="'Helvetica'" font-size="4.0445"> </text>
		</g>
		<g clip-path="url(#SVGID_2_)">
			<text transform="matrix(1 0 0 1 378.7578 342.5874)" fill="#FFFFFF" font-family="'Helvetica'" font-size="4.0445"> </text>
		</g>
		<g clip-path="url(#SVGID_2_)">
			<defs>
				<rect id="SVGID_31_" width="1334" height="749.996"/>
			</defs>
			<clipPath id="SVGID_32_">
				<use xlink:href="#SVGID_31_"  overflow="visible"/>
			</clipPath>
			<path clip-path="url(#SVGID_32_)" fill="#FFFFFF" d="M402.935,340.993v-1.721h0.176v5.1c0,0.281,0.146,0.446,0.375,0.446
				c0.228,0,0.372-0.165,0.372-0.446v-2.964h0.187v2.964c0,0.281,0.146,0.435,0.373,0.435c0.228,0,0.374-0.154,0.374-0.435v-5.1
				h0.176v1.721c0,0.271,0.093,0.405,0.28,0.405c0.186,0,0.279-0.135,0.279-0.405v-1.803c0-0.643-0.363-0.996-0.994-0.996h-1.161
				c-0.634,0-0.996,0.353-0.996,0.996v1.803c0,0.271,0.093,0.405,0.28,0.405C402.853,341.398,402.935,341.264,402.935,340.993"/>
			<path clip-path="url(#SVGID_32_)" fill="#FFFFFF" d="M404.625,337.366c0-0.364-0.311-0.663-0.663-0.663
				c-0.353,0-0.665,0.299-0.665,0.663c0,0.362,0.323,0.664,0.665,0.664C404.314,338.03,404.625,337.728,404.625,337.366"/>
		</g>
		<g clip-path="url(#SVGID_2_)">
			<text transform="matrix(1 0 0 1 401.1948 342.624)" fill="#FFFFFF" font-family="'Helvetica'" font-size="4.0445"> </text>
		</g>
		<g clip-path="url(#SVGID_2_)">
			<text transform="matrix(1 0 0 1 406.1333 342.624)" fill="#FFFFFF" font-family="'Helvetica'" font-size="4.0445"> </text>
		</g>
		<g clip-path="url(#SVGID_2_)">
			<defs>
				<rect id="SVGID_33_" width="1334" height="749.996"/>
			</defs>
			<clipPath id="SVGID_34_">
				<use xlink:href="#SVGID_33_"  overflow="visible"/>
			</clipPath>
			<path clip-path="url(#SVGID_34_)" fill="#FFFFFF" d="M939.524,405.72h-0.589v-4.426c0-0.324-0.162-0.513-0.403-0.513
				s-0.402,0.188-0.402,0.513v5.877c0,0.855,0.402,1.447,1.262,1.634l0.133,0.03v10.975c0.027,0.885,0.323,1.264,1.103,1.264
				c0.748,0,1.1-0.433,1.1-1.317v-10.951c0.913-0.106,1.422-0.643,1.422-1.743v-5.795c0-0.325-0.134-0.485-0.376-0.485
				c-0.268,0-0.377,0.137-0.377,0.432v4.507h-0.669v-4.453c0-0.325-0.107-0.485-0.377-0.485c-0.243,0-0.401,0.188-0.401,0.513v4.426
				h-0.617v-4.426c0-0.324-0.16-0.513-0.404-0.513c-0.265,0-0.402,0.188-0.402,0.536V405.72z"/>
			<path clip-path="url(#SVGID_34_)" fill="#FFFFFF" d="M945.483,402.447v10.655h1.153v6.602c0,0.858,0.432,1.368,1.103,1.368
				c0.749,0,1.098-0.51,1.098-1.396v-17.229c0-0.889-0.752-1.666-1.69-1.666C946.262,400.781,945.483,401.534,945.483,402.447"/>
		</g>
		<g clip-path="url(#SVGID_2_)">
			<text transform="matrix(1 0 0 1 948.8379 415.6152)" fill="#FFFFFF" font-family="'Helvetica'" font-size="10.1112"> </text>
		</g>
		<g clip-path="url(#SVGID_2_)">
			<text transform="matrix(1 0 0 1 951.8008 415.6152)" fill="#FFFFFF" font-family="'Helvetica'" font-size="10.1112"> </text>
		</g>
		<g clip-path="url(#SVGID_2_)">
			<text transform="matrix(1 0 0 1 970.4014 86.7905)" fill="#FFFFFF" font-family="'IdealSans-Medium'" font-size="11.4">LAKE MICHIGAN</text>
		</g>
		<g clip-path="url(#SVGID_2_)">
			<text transform="matrix(1 0 0 1 338.4995 605.8779)" fill="#FFFFFF" font-family="'IdealSans-Medium'" font-size="11.4">SOUTH GARDEN</text>
		</g>
		<g clip-path="url(#SVGID_2_)">
			<text transform="matrix(1 0 0 1 338.1802 162.498)" fill="#FFFFFF" font-family="'IdealSans-Medium'" font-size="11.4">NORTH GARDEN</text>
		</g>
		<g clip-path="url(#SVGID_2_)">
			<text transform="matrix(1 0 0 1 259.082 371.9326)" fill="#FFFFFF" font-family="'IdealSans-Medium'" font-size="7.6">MICHIGAN </text>
		</g>
		<g clip-path="url(#SVGID_2_)">
			<text transform="matrix(1 0 0 1 264.4326 381.0527)" fill="#FFFFFF" font-family="'IdealSans-Medium'" font-size="7.6">AVENUE</text>
		</g>
		<g clip-path="url(#SVGID_2_)">
			<text transform="matrix(1 0 0 1 259.4771 390.1729)" fill="#FFFFFF" font-family="'IdealSans-Medium'" font-size="7.6">ENTRANCE</text>
		</g>
		<g clip-path="url(#SVGID_2_)">
			<text transform="matrix(1 0 0 1 970.4014 96.7173)" fill="#FFFFFF" font-family="'IdealSans-Medium'" font-size="8.55">COLUMBUS DRIVE</text>
		</g>
		<g clip-path="url(#SVGID_2_)">
			<text transform="matrix(1 0 0 1 816.4551 195.7461)" fill="#FFFFFF" font-family="'IdealSans-Medium'" font-size="11.4">PRITZKER GARDEN</text>
		</g>
		<g clip-path="url(#SVGID_2_)">
			<text transform="matrix(1 0 0 1 748.2129 19.2812)" fill="#FFFFFF" font-family="'IdealSans-Medium'" font-size="7.6">MODERN WING </text>
		</g>
		<g clip-path="url(#SVGID_2_)">
			<text transform="matrix(1 0 0 1 757.0361 28.4014)" fill="#FFFFFF" font-family="'IdealSans-Medium'" font-size="7.6">ENTRANCE</text>
		</g>
		<g clip-path="url(#SVGID_2_)">
			<defs>
				<rect id="SVGID_35_" width="1334" height="749.996"/>
			</defs>
			<clipPath id="SVGID_36_">
				<use xlink:href="#SVGID_35_"  overflow="visible"/>
			</clipPath>
			<path clip-path="url(#SVGID_36_)" fill="#FFFFFF" d="M286.667,353.158c0,0.879-0.219,1.632,0.22,2.417
				c0.439,0.784,0.67,1.004,0.764,1.286c0.094,0.283,0.157,0.753-0.126,1.381c-0.282,0.628-0.793,1.475-1.106,1.475h-1.059
				c-0.282,0-0.784-0.189-0.282-0.502c0.502-0.314,0.565-0.094,0.91-0.565c0.346-0.471,0.094-1.224-0.313-1.789
				c-0.409-0.565-1.424-1.098-1.957-2.04c-0.534-0.941-1.589-1.026-2.31-0.932l-0.14,0.014c-0.32-0.048-0.912,0.259-1.308,0.357
				c-0.395,0.096-0.522,0.127-0.966,0.418c-0.443,0.292-0.808,0.177-1.482,0.268c-0.675,0.091-0.328,0.012-0.687,0.085
				c-0.359,0.072-0.486-0.055-0.863,0.006s-0.48-0.304-0.705-0.334s-0.528,0.613-0.607,0.814c-0.079,0.2-0.608,1.185-0.79,1.616
				c-0.182,0.432-0.127,0.523-0.201,0.978c-0.072,0.456-0.352,0.48-0.468,0.644c-0.115,0.165-0.17,0.389-0.206,0.681
				c-0.037,0.292-0.31,0.109-0.62,0.097c-0.31-0.012-0.875,0.031-1.264,0.006c-0.388-0.024-0.116-0.34,0.013-0.383
				c0.127-0.042,0.382-0.236,0.576-0.193c0.195,0.041,0.25-0.19,0.317-0.275c0.067-0.084,0.06-0.875,0.06-1.226
				c0-0.353,0.098-1.192,0.067-1.52c-0.03-0.327,0.014-0.815,0.014-0.9s-0.066-0.122-0.291-0.113
				c-0.227,0.009-0.424-0.131-0.65-0.339c-0.226-0.207-0.762-0.885-0.847-0.969c-0.085-0.085-0.283-0.555-0.311-0.48
				s-0.385-0.358-0.442-0.744c-0.056-0.386-0.263-0.178-0.696-0.056c-0.433,0.122-0.377-1.271-0.546-1.384
				c-0.169-0.113-0.395,0.235-0.998,0.16c-0.602-0.076-0.546-1.647-0.593-1.778c-0.047-0.133-0.047-0.217-0.207-0.161
				c-0.16,0.056-0.385,0.01-0.48-0.056c-0.094-0.066-0.338,0.095-0.583,0.095s-0.019-0.763,0.141-1.055
				c0.16-0.292,0.009-0.245-0.15-0.405c-0.161-0.16-0.066-0.396,0.056-0.593s0.009-0.207-0.113-0.47
				c-0.123-0.264,0.442-0.424,1.016-0.555c0.575-0.132,0.678-0.433,0.735-0.594c0.057-0.159,0.432-0.3,0.63-0.338
				c0.198-0.038,0.405-0.16,0.451-0.264c0.048-0.104,0.255-0.085,0.246-0.245c-0.01-0.159,0.32-0.3,0.188-0.686
				c-0.132-0.387-0.047-0.235,0.065-0.669c0.113-0.432,0.236-0.235,0.575-0.169c0.338,0.066,0.395-0.179,0.621-0.207
				c0.226-0.028,0.216,0.178,0.443,0.236c0.225,0.056,0.272,0.291,0.488,0.291c0.217,0,0.359,0.226,0.622,0.197
				c0.263-0.027,0.422,0.42,0.585,0.494c0.161,0.073,0.073-0.065,0.299,0.088c0.228,0.155,0.47,0.211,0.924,0.333
				c0.454,0.122,0.186,0.243,0.413,0.349c0.227,0.105,0.584,0.169,0.56,0.396c-0.025,0.228,0.259,0.754,0.551,0.835
				c0.291,0.081,0.386,0.527,0.467,0.738c0.08,0.213,0.453,0.384,0.685,0.504c0.232,0.122,0.413,0.575,0.645,0.736
				c0.232,0.162,0.585,0.212,0.897,0.262c0.312,0.051,2.298,0.071,3.024,0.212s1.431,0.192,2.057,0.202
				c0.625,0.01,1.718,0.464,1.854,0.484c0.839,0.116,1.758,0.089,2.248,0.071c0.489-0.019,1.237,0.01,2.071,0.282
				c1.956,0.64,0.827,0.283,2.465,1.036c2.933,1.348,1.939,3.802,1.882,4.423c-0.056,0.621,0.076,1.167-0.263,1.355
				c-0.339,0.189-0.621,0.019-0.094-1.28c0.526-1.299,0.018-2.504-0.283-3.031c-0.301-0.526-2.296-1.41-3.482-1.788
				c-1.186-0.376-1.712-0.115-2.027-0.056c-0.247,0.046-0.423,0.239-0.395,0.357c0.054,0.233-0.165,1.111-0.132,1.482
				C286.503,352.545,286.667,352.279,286.667,353.158"/>
			<path clip-path="url(#SVGID_36_)" fill="#FFFFFF" d="M288.404,408.004c0,0.879-0.219,1.632,0.22,2.417
				c0.439,0.784,0.67,1.004,0.764,1.286c0.094,0.282,0.157,0.753-0.126,1.381c-0.282,0.628-0.793,1.475-1.106,1.475h-1.059
				c-0.282,0-0.784-0.188-0.282-0.502s0.565-0.094,0.91-0.564c0.346-0.472,0.094-1.225-0.313-1.789
				c-0.409-0.565-1.424-1.099-1.957-2.04c-0.534-0.941-1.589-1.026-2.31-0.933l-0.14,0.015c-0.32-0.049-0.912,0.259-1.308,0.356
				c-0.395,0.096-0.522,0.127-0.966,0.418c-0.443,0.292-0.808,0.177-1.482,0.269c-0.675,0.091-0.328,0.012-0.687,0.085
				c-0.359,0.071-0.486-0.056-0.863,0.006c-0.377,0.061-0.48-0.305-0.705-0.334c-0.225-0.03-0.528,0.613-0.607,0.813
				c-0.079,0.2-0.608,1.186-0.79,1.616c-0.182,0.432-0.127,0.523-0.201,0.979c-0.072,0.456-0.352,0.479-0.468,0.644
				c-0.115,0.165-0.17,0.389-0.206,0.681c-0.037,0.292-0.31,0.109-0.62,0.098c-0.31-0.013-0.875,0.03-1.264,0.006
				c-0.388-0.024-0.116-0.34,0.013-0.383c0.127-0.042,0.382-0.236,0.576-0.193c0.195,0.041,0.25-0.19,0.317-0.275
				c0.067-0.084,0.06-0.875,0.06-1.226c0-0.353,0.098-1.192,0.067-1.52c-0.03-0.327,0.014-0.815,0.014-0.9s-0.066-0.122-0.291-0.113
				c-0.227,0.009-0.424-0.131-0.65-0.339c-0.226-0.207-0.762-0.885-0.847-0.969c-0.085-0.085-0.283-0.555-0.311-0.48
				c-0.028,0.075-0.385-0.357-0.442-0.744c-0.056-0.386-0.263-0.178-0.696-0.056s-0.377-1.271-0.546-1.384s-0.395,0.235-0.998,0.16
				c-0.602-0.076-0.546-1.647-0.593-1.778c-0.047-0.133-0.047-0.217-0.207-0.161c-0.16,0.057-0.385,0.01-0.48-0.056
				c-0.094-0.066-0.338,0.095-0.583,0.095c-0.245,0-0.019-0.763,0.141-1.055s0.009-0.245-0.15-0.405
				c-0.161-0.16-0.066-0.396,0.056-0.593c0.122-0.197,0.009-0.207-0.113-0.47c-0.123-0.265,0.442-0.425,1.016-0.556
				c0.575-0.132,0.678-0.433,0.735-0.594c0.057-0.159,0.432-0.3,0.63-0.338c0.198-0.038,0.405-0.16,0.451-0.264
				c0.048-0.104,0.255-0.086,0.246-0.245c-0.01-0.159,0.32-0.301,0.188-0.687c-0.132-0.387-0.047-0.234,0.065-0.669
				c0.113-0.432,0.236-0.235,0.575-0.169c0.338,0.066,0.395-0.179,0.621-0.207c0.226-0.028,0.216,0.178,0.443,0.236
				c0.225,0.056,0.272,0.291,0.488,0.291c0.217,0,0.359,0.226,0.622,0.197c0.263-0.027,0.422,0.42,0.585,0.493
				c0.161,0.073,0.073-0.064,0.299,0.088c0.228,0.155,0.47,0.212,0.924,0.333c0.454,0.122,0.186,0.243,0.413,0.35
				c0.227,0.104,0.584,0.169,0.56,0.396c-0.025,0.229,0.259,0.754,0.551,0.835c0.291,0.081,0.386,0.527,0.467,0.738
				c0.08,0.213,0.453,0.384,0.685,0.504c0.232,0.122,0.413,0.575,0.645,0.736c0.232,0.162,0.585,0.212,0.897,0.262
				c0.312,0.051,2.298,0.071,3.024,0.212c0.726,0.142,1.431,0.192,2.057,0.202c0.625,0.01,1.718,0.464,1.854,0.484
				c0.839,0.115,1.758,0.089,2.248,0.07c0.489-0.019,1.237,0.011,2.071,0.282c1.956,0.641,0.827,0.283,2.465,1.036
				c2.933,1.348,1.939,3.802,1.882,4.423c-0.056,0.621,0.076,1.167-0.263,1.355c-0.339,0.188-0.621,0.019-0.094-1.28
				c0.526-1.299,0.018-2.504-0.283-3.031c-0.301-0.525-2.296-1.41-3.482-1.788c-1.186-0.376-1.712-0.114-2.027-0.056
				c-0.247,0.046-0.423,0.239-0.395,0.357c0.054,0.232-0.165,1.11-0.132,1.481C288.24,407.392,288.404,407.125,288.404,408.004"/>
		</g>
		
			<line clip-path="url(#SVGID_2_)" fill="none" stroke="#FF0037" stroke-width="2" stroke-miterlimit="10" x1="218.101" y1="9.803" x2="246.438" y2="9.803"/>
		
			<line clip-path="url(#SVGID_2_)" fill="none" stroke="#FF0037" stroke-width="2" stroke-miterlimit="10" x1="219.276" y1="37.238" x2="219.276" y2="8.901"/>
		<g clip-path="url(#SVGID_2_)">
			<text transform="matrix(1 0 0 1 223.9385 23.0698)"><tspan x="0" y="0" fill="#FF0037" font-family="'IdealSans-Medium'" font-size="12">(</tspan><tspan x="3.408" y="0" fill="#FF0037" font-family="'IdealSans-Medium'" font-size="12">0</tspan><tspan x="9.456" y="0" fill="#FF0037" font-family="'IdealSans-Medium'" font-size="12">,0)</tspan></text>
		</g>
		
			<line clip-path="url(#SVGID_2_)" fill="none" stroke="#FF0037" stroke-width="2" stroke-miterlimit="10" x1="1115.824" y1="740.468" x2="1087.486" y2="740.468"/>
		
			<line clip-path="url(#SVGID_2_)" fill="none" stroke="#FF0037" stroke-width="2" stroke-miterlimit="10" x1="1114.648" y1="713.032" x2="1114.648" y2="741.369"/>
	</g>
</g>
<g id="Amenities">
	<circle id="MensRoom_1_" fill="#07FF00" cx="723.376" cy="428.574" r="4.475"/>
	<circle id="MensRoom" fill="#07FF00" cx="403.751" cy="340.949" r="4.475"/>
</g>
</svg>
